<svg xmlns="http://www.w3.org/2000/svg" viewBox="0 0 64 80">
  <style>
    @keyframes bob { 0%,100%{transform:translateY(0)} 50%{transform:translateY(-2px)} }
    .c { animation: bob 1s ease-in-out infinite; }
  </style>
  <g class="c">
    <!-- Horns -->
    <polygon points="18,8 11,0 21,4" fill="#7f1d1d"/>
    <polygon points="46,8 53,0 43,4" fill="#7f1d1d"/>
    <!-- Helmet -->
    <rect x="18" y="4" width="28" height="15" rx="3" fill="#991b1b"/>
    <!-- Visor slit -->
    <rect x="20" y="14" width="24" height="5" rx="1" fill="#1c1917"/>
    <!-- Face -->
    <rect x="22" y="6" width="20" height="11" rx="2" fill="#fca5a5"/>
    <!-- Angry brows -->
    <polygon points="22,10 28,10 26,8" fill="#7f1d1d"/>
    <polygon points="42,10 36,10 38,8" fill="#7f1d1d"/>
    <!-- Eyes -->
    <rect x="24" y="10" width="5" height="3" fill="#111"/>
    <rect x="35" y="10" width="5" height="3" fill="#111"/>
    <!-- Neck -->
    <rect x="28" y="19" width="8" height="4" fill="#fca5a5"/>
    <!-- Body armor -->
    <rect x="14" y="23" width="36" height="27" rx="2" fill="#ef4444"/>
    <!-- Armor cross -->
    <rect x="29" y="25" width="6" height="23" fill="#dc2626"/>
    <rect x="14" y="34" width="36" height="6" fill="#dc2626"/>
    <!-- Belt -->
    <rect x="14" y="47" width="36" height="5" fill="#7f1d1d"/>
    <rect x="29" y="47" width="6" height="5" fill="#fbbf24"/>
    <!-- Left shoulder pad -->
    <rect x="6" y="23" width="10" height="8" rx="3" fill="#b91c1c"/>
    <!-- Left arm -->
    <rect x="4" y="29" width="10" height="18" rx="2" fill="#ef4444"/>
    <!-- Right shoulder pad -->
    <rect x="48" y="23" width="10" height="8" rx="3" fill="#b91c1c"/>
    <!-- Right arm raised -->
    <rect x="50" y="14" width="10" height="16" rx="2" fill="#ef4444"/>
    <!-- Right hand -->
    <rect x="51" y="12" width="8" height="6" rx="2" fill="#fca5a5"/>
    <!-- Sword blade -->
    <rect x="54" y="0" width="5" height="22" rx="2" fill="#e2e8f0"/>
    <rect x="55" y="1" width="2" height="10" rx="1" fill="#fff" opacity="0.7"/>
    <!-- Sword guard -->
    <rect x="49" y="20" width="16" height="5" rx="2" fill="#9ca3af"/>
    <!-- Sword handle -->
    <rect x="55" y="25" width="3" height="8" rx="1" fill="#78350f"/>
    <!-- Left leg -->
    <rect x="16" y="52" width="14" height="20" rx="2" fill="#b91c1c"/>
    <!-- Right leg -->
    <rect x="34" y="52" width="14" height="20" rx="2" fill="#b91c1c"/>
    <!-- Left boot -->
    <rect x="12" y="68" width="20" height="9" rx="3" fill="#1c1917"/>
    <!-- Right boot -->
    <rect x="32" y="68" width="20" height="9" rx="3" fill="#1c1917"/>
  </g>
</svg>
